HIERARCHY
ROOT Hips
{
 OFFSET 0.000000 0.000000 0.000000
 CHANNELS 6 Xposition Yposition Zposition Yrotation Xrotation Zrotation
 JOINT Chest
 {
  OFFSET 0.000000 9.585900 0.002600
  CHANNELS 3 Yrotation Xrotation Zrotation
  JOINT Chest2
  {
   OFFSET 0.000000 9.601200 -0.005300
   CHANNELS 3 Yrotation Xrotation Zrotation
   JOINT Chest3
   {
    OFFSET 0.000000 9.561800 0.000000
    CHANNELS 3 Yrotation Xrotation Zrotation
    JOINT Chest4
    {
     OFFSET 0.000000 9.552100 0.000000
     CHANNELS 3 Yrotation Xrotation Zrotation
     JOINT Neck
     {
      OFFSET 0.000000 14.453000 0.000000
      CHANNELS 3 Yrotation Xrotation Zrotation
      JOINT Head
      {
       OFFSET 0.000000 8.936500 -0.011300
       CHANNELS 3 Yrotation Xrotation Zrotation
       End Site
       {
        OFFSET 0.000000 17.073600 -0.006000
       }
      }
     }
     JOINT RightCollar
     {
      OFFSET -2.921100 9.558500 0.000000
      CHANNELS 3 Yrotation Xrotation Zrotation
      JOINT RightShoulder
      {
       OFFSET -13.519700 0.000000 0.000000
       CHANNELS 3 Yrotation Xrotation Zrotation
       JOINT RightElbow
       {
        OFFSET 0.000000 -29.696600 0.000000
        CHANNELS 3 Yrotation Xrotation Zrotation
        JOINT RightWrist
        {
         OFFSET 0.000000 -24.004700 0.000000
         CHANNELS 3 Yrotation Xrotation Zrotation
         End Site
         {
          OFFSET 0.000000 -17.728500 0.000000
         }
        }
       }
      }
     }
     JOINT LeftCollar
     {
      OFFSET 2.921100 9.558500 0.000000
      CHANNELS 3 Yrotation Xrotation Zrotation
      JOINT LeftShoulder
      {
       OFFSET 13.519700 0.000000 0.000000
       CHANNELS 3 Yrotation Xrotation Zrotation
       JOINT LeftElbow
       {
        OFFSET 0.000000 -29.696600 0.000000
        CHANNELS 3 Yrotation Xrotation Zrotation
        JOINT LeftWrist
        {
         OFFSET 0.000000 -24.004700 0.000000
         CHANNELS 3 Yrotation Xrotation Zrotation
         End Site
         {
          OFFSET 0.000000 -17.728500 0.000000
         }
        }
       }
      }
     }
    }
   }
  }
 }
 JOINT RightHip
 {
  OFFSET -7.771700 -0.012900 -0.001300
  CHANNELS 3 Yrotation Xrotation Zrotation
  JOINT RightKnee
  {
   OFFSET 0.000000 -40.869800 0.001200
   CHANNELS 3 Yrotation Xrotation Zrotation
   JOINT RightAnkle
   {
    OFFSET 0.000000 -39.717900 0.002100
    CHANNELS 3 Yrotation Xrotation Zrotation
    JOINT RightToe
    {
     OFFSET 0.000000 -4.965400 11.033500
     CHANNELS 3 Yrotation Xrotation Zrotation
     End Site
     {
      OFFSET 0.000000 -1.423100 5.872300
     }
    }
   }
  }
 }
 JOINT LeftHip
 {
  OFFSET 7.771700 -0.012900 -0.001300
  CHANNELS 3 Yrotation Xrotation Zrotation
  JOINT LeftKnee
  {
   OFFSET 0.000000 -40.869800 0.001200
   CHANNELS 3 Yrotation Xrotation Zrotation
   JOINT LeftAnkle
   {
    OFFSET 0.000000 -39.717900 0.002100
    CHANNELS 3 Yrotation Xrotation Zrotation
    JOINT LeftToe
    {
     OFFSET 0.000000 -4.965400 11.033500
     CHANNELS 3 Yrotation Xrotation Zrotation
     End Site
     {
      OFFSET 0.000000 -1.423100 5.872300
     }
    }
   }
  }
 }
}
MOTION
Frames: 7
Frame Time: 0.008333
0.000000 85.388000 0.000000 0.000000 -5.767877 0.000000 0.000000 11.653817 0.000000 0.000000 -5.885947 0.000000 0.000000 -0.000000 0.000000 0.000000 -0.000000 0.000000 0.000000 12.528835 0.000000 0.000000 0.711642 0.000000 0.000000 -0.000000 0.000000 0.000000 0.000000 -90.000000 0.000000 -2.309062 0.000000 0.000000 2.309062 0.000000 0.000000 -0.000000 0.000000 0.000000 -0.000000 90.000000 0.000000 -2.309062 0.000000 0.000000 2.309062 0.000000 0.000000 8.520406 0.000000 0.000000 1.905762 0.000000 -0.000000 -4.658285 0.000000 0.000000 -0.000000 0.000000 0.000000 8.520406 0.000000 0.000000 1.905762 0.000000 -0.000000 -4.658285 0.000000 0.000000 -0.000000 0.000000
-84.606609 55.701873 -44.721113 -172.270622 -14.410970 -0.967585 -0.617550 15.909529 0.336403 -0.064846 1.544546 0.059954 -0.105924 2.589476 0.100083 -0.522737 14.114348 0.486276 -0.572102 11.900742 5.314139 -1.870135 -13.129922 5.874920 0.339124 -1.183459 1.234097 5.045799 -3.129121 -9.450531 -64.365015 -46.644236 103.923652 -16.315773 11.888466 8.131968 -6.825493 -2.595475 1.594304 2.749315 -11.254627 7.680373 55.031005 -49.186595 -98.422054 11.448055 -8.386874 7.475544 -3.834867 -60.958358 7.834776 -34.034871 85.505902 -39.404583 -9.850622 -17.831638 13.727312 0.042091 -0.113888 0.013339 11.039104 -57.348678 -13.442348 89.592603 70.685879 91.127209 0.923076 -19.357326 -2.656433 0.041766 0.223239 0.015477
-84.607429 55.701852 -44.719467 -172.273023 -14.411428 -0.961477 -0.609384 15.912066 0.331048 -0.070284 1.543286 0.059886 -0.098492 2.594356 0.096702 -0.510092 14.124806 0.480579 -0.585814 11.891127 5.320444 -1.874730 -13.133428 5.877085 0.329194 -1.215929 1.238267 5.039004 -3.125092 -9.444244 -64.349028 -46.647019 103.910424 -16.301082 11.901507 8.128792 -6.840971 -2.620928 1.622225 2.749271 -11.261504 7.673468 55.042230 -49.221854 -98.432668 11.462134 -8.376756 7.477107 -3.831937 -60.958849 7.830645 -33.997321 85.505942 -39.368310 -9.863445 -17.829715 13.728437 0.049290 -0.111239 0.013005 11.050041 -57.346031 -13.455700 89.575342 70.680845 91.110198 0.925591 -19.353446 -2.654600 0.038024 0.223563 0.013408
-84.608699 55.702244 -44.719037 -172.268184 -14.421272 -0.955598 -0.606781 15.925394 0.324381 -0.070790 1.543117 0.060428 -0.101996 2.593837 0.097162 -0.497512 14.142466 0.474700 -0.602839 11.887664 5.315861 -1.875661 -13.143813 5.883629 0.318437 -1.252597 1.239268 5.036881 -3.119959 -9.438739 -64.330883 -46.645379 103.897077 -16.303702 11.892646 8.124310 -6.850003 -2.651493 1.646357 2.748905 -11.258469 7.664231 55.039477 -49.234599 -98.432859 11.443045 -8.373907 7.473311 -3.827858 -60.949502 7.819426 -34.002897 85.504344 -39.377668 -9.863382 -17.828000 13.729975 0.046118 -0.112721 0.014225 11.053231 -57.334146 -13.466317 89.565054 70.677666 91.098646 0.926777 -19.350190 -2.653768 0.036511 0.222259 0.013885
-84.609117 55.702408 -44.717570 -172.265280 -14.425230 -0.954005 -0.602164 15.933845 0.321006 -0.060484 1.551706 0.057752 -0.108419 2.590596 0.100920 -0.495775 14.152116 0.468551 -0.621192 11.890763 5.304338 -1.885015 -13.147370 5.888391 0.310720 -1.294400 1.232572 5.041797 -3.111285 -9.418389 -64.311769 -46.642994 103.876934 -16.302605 11.892013 8.118638 -6.857868 -2.675083 1.667161 2.749070 -11.257831 7.659515 55.031659 -49.253182 -98.426287 11.430690 -8.373468 7.468265 -3.827800 -60.946407 7.816340 -34.023778 85.500489 -39.397246 -9.869649 -17.822535 13.731118 0.045796 -0.114134 0.014370 11.052588 -57.328889 -13.470236 89.546844 70.673495 91.083239 0.923014 -19.347417 -2.657691 0.038897 0.223413 0.016471
-84.609308 55.702512 -44.715808 -172.268607 -14.427723 -0.953169 -0.592085 15.941632 0.317778 -0.059752 1.553812 0.057166 -0.107584 2.594238 0.102708 -0.489258 14.160303 0.460879 -0.643171 11.887436 5.295737 -1.931038 -13.136448 5.858635 0.298408 -1.320853 1.240239 5.048289 -3.119796 -9.412229 -64.287783 -46.638068 103.856621 -16.298276 11.905764 8.109785 -6.867682 -2.698624 1.692078 2.749564 -11.256838 7.655476 55.014461 -49.275701 -98.413070 11.435910 -8.379559 7.464296 -3.830343 -60.944936 7.816859 -34.001654 85.496951 -39.376107 -9.845750 -17.817430 13.724747 0.051058 -0.116275 0.017624 11.053621 -57.324104 -13.471355 89.527868 70.668186 91.066474 0.923232 -19.347977 -2.661496 0.038092 0.227046 0.017413
-84.614196 55.702421 -44.713019 -172.260253 -14.427281 -0.928467 -0.604587 15.944004 0.287831 -0.055434 1.559782 0.053551 -0.097647 2.608295 0.094307 -0.491357 14.152584 0.467692 -0.667087 11.885973 5.283252 -1.959030 -13.144378 5.854846 0.281819 -1.364115 1.234134 5.072722 -3.111377 -9.393204 -64.271615 -46.632038 103.830677 -16.299094 11.903899 8.099086 -6.867365 -2.724710 1.720282 2.746964 -11.253719 7.651577 54.995022 -49.281437 -98.402190 11.448757 -8.387655 7.461230 -3.787563 -60.948147 7.758581 -34.023301 85.493851 -39.394645 -9.861645 -17.796292 13.720709 0.066461 -0.130796 0.026104 11.086725 -57.317905 -13.522236 89.517059 70.667824 91.056814 0.909772 -19.392640 -2.668846 0.055316 0.272098 0.028800
